<?xml version="1.0" encoding="utf-8"?>
<!-- Generator: Adobe Illustrator 25.3.1, SVG Export Plug-In . SVG Version: 6.00 Build 0)  -->
<svg version="1.1" id="Ebene_1" xmlns="http://www.w3.org/2000/svg" xmlns:xlink="http://www.w3.org/1999/xlink" x="0px" y="0px"
	 viewBox="0 0 173 173" style="enable-background:new 0 0 173 173;" xml:space="preserve">
<style type="text/css">
	.st0{fill:#202A44;}
	.st1{fill:#FFFFFF;}
</style>
<g id="Gruppe_91" transform="translate(-874 -29)">
	<circle id="Ellipse_36" class="st0" cx="960.5" cy="115.5" r="86.5"/>
	<g id="Gruppe_65" transform="translate(753.628 -91.755)">
		<path id="Pfad_2526" class="st1" d="M259.7,156c-0.1,1.2-1.4,2.5-2.3,3.4c-0.6,0.7-1.4,1.3-2.1,1.8c-0.4,0.2-0.8,0.4-1.2,0.5
			c-0.4,0.1-0.9-0.1-1.1-0.4c-0.3-0.2-0.4-0.6-0.4-0.9c0.1-1.2,1.5-2.6,2.4-3.5c0.9-1,2-1.8,3.2-2.2c0.4-0.1,0.9,0.1,1.1,0.4
			C259.6,155.3,259.7,155.6,259.7,156 M260.6,153.8c-0.9-1-2.3-1.4-3.5-1c-0.7,0.2-1.4,0.6-1.9,1c-0.6,0.5-1.2,0.9-1.7,1.5
			c-1,0.9-1.8,2-2.4,3.3c-0.7,1.9,0.2,4.1,2.2,4.8c0.7,0.3,1.5,0.3,2.2,0.1c0.7-0.2,1.4-0.6,1.9-1c0.6-0.4,1.2-0.9,1.7-1.5
			c1-0.9,1.9-2,2.4-3.3C262,156.4,261.7,154.8,260.6,153.8"/>
		<path id="Pfad_2527" class="st1" d="M188,138.5c-0.2,0.4-0.6,0.7-1.1,0.8l-1.2,0.4l-0.9-3.2l1.3-0.4c0.4-0.2,0.8-0.1,1.2,0
			C188,136.7,188.3,137.6,188,138.5 M193.5,144.5l-0.6-0.2c-0.3-0.1-0.6-0.4-0.7-0.7l-0.7-2.2c-0.2-1-1-1.7-1.9-1.9
			c0.8-0.8,1-2,0.6-3.1c-0.2-0.8-0.6-1.5-1.3-1.9c-0.8-0.5-1.7-0.5-2.6-0.2l-4.1,1.2l3.3,11.4l2.1-0.6l-1.4-4.8l1.3-0.4l0.6-0.1
			c0.2,0,0.4,0,0.6,0.1c0.4,0.3,0.6,0.7,0.7,1.1l0.7,2.1l0.2,0.5c0.1,0.2,0.3,0.4,0.5,0.6L193.5,144.5z"/>
		<path id="Pfad_2528" class="st1" d="M147.6,168.8l-0.7,1.1l-2.8-1.8l0.8-1.2c0.2-0.4,0.5-0.6,0.9-0.8c0.9-0.1,1.8,0.5,2.1,1.3
			C148,167.9,147.9,168.4,147.6,168.8 M155.9,168.4l-0.6,0.3c-0.3,0.1-0.7,0.1-1-0.1l-2-1.2c-0.8-0.6-1.9-0.7-2.7-0.2
			c0-1.1-0.6-2.2-1.6-2.7c-0.6-0.5-1.4-0.7-2.2-0.6c-0.9,0.2-1.7,0.7-2.1,1.5l-2.3,3.6l10,6.4l1.2-1.9l-4.2-2.7l0.7-1.1l0.4-0.5
			c0.1-0.1,0.3-0.3,0.5-0.3c0.5,0,0.9,0.1,1.3,0.4l1.9,1.1l0.5,0.2c0.2,0.1,0.5,0.1,0.7,0.1L155.9,168.4z"/>
		<path id="Pfad_2529" class="st1" d="M147.8,237.7c-0.4,0.8-1.3,1.3-2.2,1.1c-0.4-0.1-0.8-0.5-1-0.9l-0.6-1.2l3-1.5l0.6,1.2
			C147.9,236.9,147.9,237.3,147.8,237.7 M149.5,236.3l-1.9-3.8l-10.6,5.4l1,2l4.5-2.3l0.6,1.2l0.2,0.6c0.1,0.2,0,0.4,0,0.6
			c-0.2,0.4-0.6,0.7-1,0.9l-1.9,1.1l-0.4,0.3c-0.2,0.1-0.4,0.4-0.5,0.6l1.3,2.5l0.1-0.6c0-0.3,0.2-0.6,0.5-0.8l2.1-1.1
			c0.9-0.4,1.5-1.3,1.6-2.3c1,0.6,2.2,0.6,3.1,0c0.7-0.3,1.3-0.9,1.7-1.6C150.1,238,150,237.1,149.5,236.3"/>
		<path id="Pfad_2530" class="st1" d="M143.4,228.3l-4.2,2.6l-0.7-2.1L143.4,228.3z M146.2,228.8l-0.9-2.5L133,227l0.7,2.2l2.9-0.2
			l1,2.9l-2.4,1.6l0.7,2.2L146.2,228.8z"/>
		<path id="Pfad_2531" class="st1" d="M258,252.7c0,0.5-0.2,0.9-0.5,1.2l-0.9,0.9l-2.5-2.3l0.9-1c0.3-0.3,0.6-0.5,1.1-0.6
			C257,251.1,257.8,251.8,258,252.7 M265.7,255.1l-0.6,0.2c-0.3,0.1-0.7,0-0.9-0.2l-1.8-1.5c-0.7-0.7-1.7-1-2.7-0.7
			c0.2-1.1-0.2-2.2-1.1-2.9c-0.6-0.6-1.3-0.9-2.1-1c-0.9,0-1.8,0.4-2.3,1.1l-2.9,3.1l8.7,8.1l1.5-1.6l-3.7-3.4l0.9-1l0.5-0.4
			c0.2-0.1,0.4-0.2,0.6-0.2c0.5,0.1,0.9,0.3,1.2,0.6l1.7,1.4l0.4,0.3c0.2,0.1,0.5,0.2,0.7,0.2L265.7,255.1z"/>
		<path id="Pfad_2532" class="st1" d="M212.9,275.4c-0.3,0.4-0.7,0.6-1.2,0.6l-1.3,0.1l-0.2-3.4l1.4-0.1c0.4-0.1,0.8,0,1.2,0.3
			C213.3,273.6,213.3,274.6,212.9,275.4 M216.9,282.3l-0.6-0.3c-0.3-0.2-0.5-0.5-0.5-0.8l-0.2-2.3c0-1-0.6-1.9-1.5-2.3
			c0.9-0.7,1.4-1.8,1.2-2.9c0-0.8-0.3-1.6-0.9-2.1c-0.7-0.6-1.6-0.9-2.5-0.8l-4.2,0.3l0.8,11.9l2.2-0.2l-0.4-5l1.3-0.1l0.6,0
			c0.2,0,0.4,0.1,0.5,0.2c0.3,0.4,0.5,0.8,0.5,1.3l0.2,2.2l0.1,0.5c0.1,0.2,0.2,0.5,0.4,0.7L216.9,282.3z"/>
		<path id="Pfad_2533" class="st1" d="M203.1,278.1l-2.3-0.1l1.5-4.7L203.1,278.1z M206.2,283l-2.4-12.1l-2.6-0.2l-4.2,11.7l2.3,0.1
			l0.9-2.8l3.1,0.2l0.5,2.9L206.2,283z"/>
		<path id="Pfad_2534" class="st1" d="M194.7,274.8c-0.7,0.6-1.7,0.2-2.5,0.1l0.7-3.6l1,0.2c0.5,0.1,0.9,0.3,1.2,0.6
			C195.5,273,195.4,274.1,194.7,274.8 M197.2,271.4c-0.5-0.8-1.4-1.4-2.3-1.5l-3.8-0.7l-2.3,11.7l2.2,0.4l0.9-4.7l1.4,0.3
			c1.8,0.5,3.6-0.6,4.1-2.4c0-0.1,0.1-0.3,0.1-0.4C197.7,273.1,197.6,272.2,197.2,271.4"/>
		<path id="Pfad_2535" class="st1" d="M260.2,195.9c0.7,3.6,1.1,7.2,1.2,10.9l-0.9-0.9l-0.3-4c0,0-1.4-2.4-1.6-2.6
			c-0.3-0.4-0.5-0.7-0.7-1.1c-0.2,0.1-0.5,0.2-0.7,0.3c-0.2,0.2-0.9,0.6-1.1,0.8c-0.2,0.3-0.3,0.6-0.4,0.9c0,0.3-0.1,1.6-0.1,1.6
			l-1.8,0.3l-0.2,5.4l-0.2,0.4c-0.2,0.2-0.3,0.5-0.4,0.7c-0.1,0.2-0.1,0.4-0.1,0.7c0.1,0.2,0.5,0.4,0.7,0.7c0.2,0.3,0.6,0.7,0.6,1.1
			s-0.4,0.7-0.3,0.9s0.2,0.3,0.2,0.4s0,0.2-0.3,0.4s-0.5,0.6-0.6,0.7s-1.5,0-1.5,0c-0.4-0.6-0.8-1.2-1.3-1.7
			c-0.6-0.5-1.3-0.9-2.1-1.3c-0.4-0.1-0.8-0.2-1.2-0.4c-0.2-0.1-0.3-0.3-0.5-0.4l-0.1-0.9c0,0-0.7-0.4-1.1-0.6
			c-0.4-0.2-0.8-0.3-1.2-0.5c-0.3-0.1-0.5-0.1-0.5-0.1l-0.1-1l-1.1-0.4v6c0,0,1.4,1.2,1.8,1.6s0.9,0.7,0.9,0.9c0.1,0.3,0.1,0.6,0,1
			c-0.1,0.4-0.1,0.7-0.3,0.9c-0.2,0.1-0.3,0.3-0.5,0.5l-0.1,1.2c0,0,0,0.3-0.4,0.3s-3.4,0.1-3.4,0.1s-0.3-2.2-0.3-2.7
			c0-0.4-0.1-0.8-0.3-1.1c-0.4-0.5-0.7-1.1-0.9-1.7l-0.3-0.6l-0.3,0c-0.1,0.4,0,0.8,0.2,1.1c0.3,0.6,0.7,1.5,0.9,1.9
			c0.2,0.5,0.3,1.1,0.3,1.7c-0.1,1.1-0.4,2.1-0.7,3.1c-0.4,1.2-1,2.3-1.8,3.4c-0.4,0.4-0.8,0.8-1.3,1.1l-6.8,0
			c-0.1-0.3-0.2-0.6-0.4-0.8c-0.2-0.2-0.5-0.3-0.7-0.3c-0.4,0-0.7,0.1-1.1,0.1c-0.5,0.2-0.9,0.4-1.4,0.6c-0.3,0.1-0.7,0.2-1,0.1
			c0,0-0.7-2-0.7-2.2s0.5-0.8,0.5-0.8s1.8-0.9,2.2-1.1c0.4-0.3,0.8-0.6,1.1-1.1c0.3-0.5,0.7-1,1.1-1.5c0.2-0.1,0.4-0.1,0.7-0.2
			l1.8-2.1l1.6-1.7l0.3-0.3c0,0-0.4-1.9-0.6-2.7c-0.3-0.9-0.5-1.9-0.6-2.9c-0.1-0.5-0.1-1,0-1.5c0.1-0.3,0.3-0.6,0.5-0.9
			c0.1-0.2,0.6-0.3,0.9-0.8c0.3-0.8,0.4-1.6,0.4-2.4c0.1-0.7,0-1.5-0.1-2.2c-0.1-0.5-0.2-1.1-0.4-1.6c-0.1-0.2-0.2-0.3-0.2-0.5
			l-1.2,0.3c-0.1,0.1-0.2,0.3-0.2,0.4c0,0.1,0,1,0,1l0.8,0c0,0,0.1,0,0.1,0.4c0,0.5-0.1,1-0.3,1.4c-0.3,0.8-0.5,1.5-0.7,2.3
			c-0.1,0.4-0.2,0.9-0.4,1.3c-0.1,0.4-0.3,0.8-0.6,0.9c-0.4,0.1-0.8,0.3-1.2,0.3c-0.4,0-0.8-0.1-1.2-0.4c-0.3-0.2-0.5-0.4-0.7-0.7
			c-0.2-0.7-0.3-1.5-0.3-2.2c0,0-0.1-1.5-0.2-1.9s-0.1-0.9-0.2-0.9s-0.8-0.3-0.8-0.3s-0.2-0.1-0.2-0.4v-1.2
			c-0.3-0.3-0.6-0.5-0.9-0.7c-0.4-0.2-0.9-0.5-1.4-0.6c0,0-0.4-1.7-0.5-2.2c-0.2-0.6-0.5-1.1-0.8-1.6c-0.2-0.4-0.5-0.6-0.7-0.6
			c-0.5-0.1-0.9-0.1-1.4-0.1c-0.3,0-0.6,0.1-0.8,0.2c-0.2,0.2-0.4,0.3-0.6,0.6c-0.1,0.5-0.1,1-0.1,1.4c0,0,0,2.6-0.1,3.1
			s0,0.9-0.4,1.1c-0.3,0.1-0.7,0.3-1,0.4c-0.3,0.2-0.6,0.3-0.9,0.4c-0.2,0-0.3,0.1-0.5,0.1c0,0-0.5-1.7-0.6-2.6
			c-0.3-1.2-0.6-2.5-0.7-3.8c0-0.8,0-4.3,0-4.3l-1.8-0.1c0,0-0.5,1.3-0.7,1.8s-0.1,0.7-0.8,0.9s-1.2,0.4-1.7,0.5
			c-0.2,0.1-0.5,0.1-0.7,0c0,0,0.3-2.4,0.3-2.8s0.2-2.2,0.2-2.2l0-0.6h-0.9c0,0.5-0.1,1-0.1,1.5c-0.1,0.8-0.4,1.5-0.7,2.3
			c-0.3,0.6-0.7,1.2-1.2,1.6c-0.3,0.2-0.7,0.4-1,0.5c-0.3,0.1-0.9,0.1-0.9,0.1c0,0.1-0.1,0.2-0.1,0.3c-0.1,0.2-0.1,1.4-0.2,2
			c-0.1,0.9-0.3,1.8-0.5,2.7c-0.1,0.4-0.2,0.8-0.2,1.2c0,0-2.6,0.1-3.4,0.1c-0.6,0-1.2,0.1-1.7,0.3c-0.4,0.1-0.8,0.4-1,0.8
			c-0.1,0.4-0.2,0.8-0.2,1.2c-0.1,0.4,0,0.4-0.7,1s-1.5,1.3-1.6,1.5c-0.2,0.5-0.3,1-0.4,1.5c-0.2,0.6-0.4,1.1-0.7,1.7
			c-0.2,0.5-0.5,1-0.9,1.3c-0.5,0.4-1.6,1.5-2.3,2.1s-1,1.1-1,1.2s-0.6,1.7-0.8,2.5s-0.2,1.2-0.6,1.4c-0.6,0.4-1.3,0.7-2,0.8
			c-1.2,0.2-1.7,0.2-2.2,0.7c-0.6,0.5-1,1-1.3,1.7c-0.2,0.5-0.4,1.1-0.6,1.7l-0.2,1.1c0,0-5.4,0.5-6.5,0.7c-1.3,0.2-2.5,0.4-3.8,0.4
			c-0.6-0.1-1.2-0.2-1.8-0.4c-0.2-0.1-0.9-0.2-0.9-0.2s-0.3,0.2-0.5,0.5c0,0,0,0.1-0.3,0.4c-0.2,0.3-0.5,0.4-0.9,0.5
			c-0.4,0.1-0.4,0-1.2-0.3c-0.6-0.3-1.2-0.6-1.7-1l-0.9-0.5c-0.2,0.2-0.4,0.4-0.5,0.7c-0.1,0.3-0.3,0.9-0.5,1.4
			c-0.2,0.8-0.3,1.5-0.3,2.3c0,0.6,0,1.6,0,2.1s0,1.1,0,1.1s-3.1,0.3-3.4,0.4c-0.1,0-0.2,0.1-0.3,0.1c-1.6-3.4-2.8-7-3.7-10.7
			c0.2,0,0.3-0.1,0.5-0.1c0.3,0,1.5-0.4,2.1-0.4s1.3-0.1,1.3-0.1s1-1,1.2-1.3c0.5-0.5,1.2-0.9,1.9-1.1c1-0.3,3.1-1.3,3.7-1.5
			c0.5-0.1,0.9-0.4,1.2-0.8c0.2-0.4,0.5-1,0.7-1.1s0.5-0.2,0.8-0.3s0.9-0.3,1.4-0.5c0.4-0.1,0.8-0.2,1.2-0.5
			c0.3-0.2,0.5-0.5,0.7-0.9c0.2-0.4,0.3-0.7,0.5-0.8c0.2-0.1,0.4-0.1,0.5,0c0.2,0.1,0.5,0.1,0.7,0.2l0.2-1.1
			c0.2-0.2,0.4-0.4,0.6-0.5c0.4-0.3,1.6-1.2,2-1.4s0.9-0.7,1.1-0.7s2.1-0.1,2.1-0.1s0.3-1,0.3-1.3s0.3-0.5,0.5-0.6s0.9-0.8,1.2-1.1
			c0.3-0.3,0.6-0.5,0.9-0.6c0.7-0.2,1.3-0.4,1.9-0.6c0.3-0.2,1.9-1.6,3-2.8s2.6-2.8,3.4-3.4s2.7-1.8,3.3-2.1c0.4-0.2,0.7-0.5,0.9-1
			c0.1-0.4,0.3-0.8,0.5-1.1c0.3-0.4,0.4-0.6,0.7-0.6s0.9,0,0.9,0l0.1-1.1c0.5-0.3,0.9-0.7,1.4-1c0.3-0.4,1.4-1.9,1.8-2.3
			c0.6-0.7,1.2-1.4,1.8-2c0.5-0.5,1.7-1.6,2.2-2s1.5-1.3,1.5-1.3l1.3-1.3c0,0-2.7,1.6-3.4,2.1s-3.5,1.9-4.6,2.5s-2.8,1.3-3.4,1.6
			c-0.5,0.2-0.9,0.5-1.3,0.9c-0.3,0.3-1.7,1.5-2.3,2.2c-0.4,0.5-1,0.9-1.6,1.2c-0.8,0.2-1.6,0.4-2.4,0.8c-0.8,0.5-1.5,1-2.1,1.6
			c-0.7,0.7-1.4,1.3-2.2,1.8c-0.8,0.5-3.1,1.6-3.8,1.9c-0.6,0.2-1.2,0.5-1.8,0.8c-0.5,0.4-1,1.1-1.7,1.6s-0.9,1.1-1.7,1.4
			c-0.9,0.3-1.8,0.6-2.6,1c-0.3,0.3-1.3,1.4-1.9,2.1c-0.4,0.5-1,1-1.6,1.4c-0.6,0.4-1.2,0.7-1.9,0.9c-0.8,0.4-1.5,0.7-2.1,1
			c-0.5,0.2-0.9,0.6-1.2,1.1c-0.5,0.8-1,1.6-1.7,2.3c-0.6,0.7-0.6,1-1.3,1.1s-2.6,0.3-3.3,0.4c-0.7,0-1.3,0.1-1.9,0.3
			c-0.6,0.2-1.2,0.3-1.4,0.4c0,0-0.1,0-0.1,0.1c-0.5-5.1-0.3-10.2,0.6-15.2l3.3,3.5l2.1,2.4l1.2-1.4l1.9-1l7.1-3.9
			c0,0,10.3-5.3,11-5.7s5.5-3.2,6.7-3.9s6.8-4.2,7.3-4.5s3.5-2,4.5-2.4s5.1-2.4,5.8-2.6s2.4-0.7,2.6-0.8s1.6-1.6,1.6-1.6l0.8,1.6
			c0,0,0.6,1.3,0.8,1.8c0.2,0.6,0.5,1.2,0.9,1.7c0.2,0.2,0.5,0.4,0.8,0.4c0.4,0.1,6,1.5,6,1.5l0.3,0.3l0.2,1.7l0.8,1l3.9,4.8
			c0.7,0.2,1.3,0.4,1.9,0.7c0.2,0.1,0.4,0.2,0.5,0.5s0.4,1.5,0.7,1.6c1.1,0.1,2.2,0.1,3.2,0c0.7,0,2.8,0,2.8,0l1.3,1.4l2.4,0.2
			c0.4,0.1,0.7,0.1,1.1,0.3c0.2,0.1,1.9,1,2.7,1.4s3.3,1.8,3.5,2c0.3,0.3,0.5,0.6,0.7,0.9c0.3,0.4,1.1,1.1,1.1,1.1l1.8,0l0.1-1.3
			l1.7-1.3h2.2l3.6-4.9l3.7,1.8L260.2,195.9z M259.6,193.5l-0.3-0.1c-0.1,0-0.2,0-0.2,0c-1-0.4-1.9-0.9-2.8-1.5
			c-0.7-0.4-2.9-1.6-2.9-1.6l-1.8,4.9l-3.7,0c0,0-1.3,1.3-1.4,1.5c-0.2,0.3-0.5,0.5-0.8,0.5c-0.6-0.2-1.1-0.4-1.6-0.7l-5.9-3
			l-5.9-2.8l-4.6,0.2c0,0-0.3-0.7-0.5-0.9s-1.3-1.6-1.3-1.6l-2.6-0.9l-1.5-2.2l-2.9-4.7c-0.2,0-0.5-0.1-0.7-0.2
			c-0.4-0.1-2.6-0.4-3.9-0.6c-0.6-0.1-1.2-0.2-1.7-0.5c0,0-0.7-1.5-1.1-2.4s-0.9-2-1.3-2.9s-0.9-1.8-0.9-1.8s-1.6,1-2.4,1.4
			s-5.2,2.9-6.3,3.4s-5.4,2.9-6.4,3.5c-1,0.5-9.7,5.2-10.7,5.8s-9.1,4.9-10.2,5.5s-7.8,4.1-8.6,4.6s-5.5,2.9-5.5,2.9
			s-1.2-0.9-1.6-1.3s-1.7-1.4-2.7-2.1c-0.3-0.3-0.7-0.6-1.1-0.9c6.7-29.4,36-47.7,65.4-41C238.8,158.6,254.5,173.8,259.6,193.5
			 M204.7,206.8c-0.3,0.5-0.5,0.9-1.1,1.7c-0.5,0.7-1.1,1.3-1.8,1.9c-0.7,0.6-1.4,1.2-2.2,1.7c-0.6,0.4-1,0.7-1.2,0.9
			s-0.4,0.3-0.4,0.3c-0.3-0.3-0.6-0.6-0.9-1c-0.2-0.2-0.3-0.5-0.4-0.8h0.7l0.1-1.2c0.2-0.1,0.5-0.2,0.7-0.3c0.3-0.2,0.8-0.4,1-0.9
			c0.1-0.5,0.4-0.9,0.7-1.3c0.3-0.3,0.2-0.4,0.8-0.5c0.6-0.1,1.1-0.2,1.6-0.5c0.5-0.2,0.9-0.7,1.3-0.8s0.5-0.3,0.9-0.2
			c0.3,0.1,0.6,0.2,0.8,0.3C205.1,206.3,204.9,206.6,204.7,206.8 M182.9,242.8c0,0,4.4-4.1,4.9-4.7c0.5-0.6,1-1.2,1.5-1.8
			c0.4-0.5,0.8-1.1,1-1.7c0-0.3,0-0.6-0.1-0.9c-0.2-0.8-0.1-1.7,0.4-2.3c0.5-1.1,1.1-2.1,1.9-3c0.9-0.5,1.8-1,2.8-1.3
			c0.8-0.2,1.5-0.5,2.2-1c0.4-0.3,0.5-0.4,0.6-0.8c0-0.6,0.1-1.1,0.3-1.7c0.4-0.5,1.4-2.3,2-3.1s1.8-2.8,2-3.2s0.7-1,0.7-1l1.7,0.2
			c-0.1,0.6-0.3,1.1-0.6,1.6c-0.4,0.7-0.7,1.3-1,2c-0.1,0.3-0.4,1.3-0.6,1.6c-0.1,0.2-0.2,0.5-0.1,0.7c0.1,0.3,0.3,0.3,0.2,0.7
			c-0.1,0.3-0.3,0.6-0.5,0.9c-0.4,0.4-0.8,1-1,1.5c-0.2,0.5-0.3,1.1-0.2,1.7c0.2,0.5,0.7,1,0.7,1.3c0,0.5-0.1,1-0.4,1.4
			c-0.3,0.4-0.6,0.4-0.5,0.8c0.1,0.3,0.2,0.6,0.4,0.9c0.1,0.3,0.2,0.6,0.2,0.9c0,0-0.1,0.2-0.2,0.7c-0.2,0.7-0.4,1.4-0.6,2.1
			c0,0.6-0.1,1.3-0.2,1.9c-0.2,0.3-0.1,0.6-0.4,0.5s-1.8-0.4-2.3-0.5c-0.7-0.2-1.4-0.3-2.2-0.3c-0.5,0-1.1,0.2-1.6,0.4
			c-0.8,0.5-1.5,1.1-2.2,1.7c-1.1,0.9-1.9,1.6-3.1,2.5c-0.8,0.6-1.6,1.2-2.3,1.9c-0.2,0.4-0.4,0.7-0.6,1.1c-0.2,0.4-1.3,0.4-1.3,0.4
			s-1.3-1.5-1.6-1.7C183,243.2,182.9,243,182.9,242.8 M209.9,205.9c0.8-0.2,1.6-0.5,2.3-0.9c0.7-0.4,1.3-0.9,1.9-1.4
			c0.3-0.4,1.2-1.2,1.2-1.2c0.3,0.2,0.6,0.4,1,0.5c0.5,0.3,1.2,0.4,1.4,0.8c0.2,0.4,0.4,0.8,0.5,1.2c0.1,0.6,0.1,1.1,0.2,1.7
			c0,0.7,0,3.4-0.1,4s-0.1,2.6-0.1,2.6s-1.5,0.2-1.9,0.3c-0.3,0.1-0.7,0.2-0.9,0.5c-0.2,0.3-0.3,0.9-0.9,1s-0.8-0.1-1.3-0.5
			c-0.9-1-1.6-2.2-2.1-3.5c-0.5-1.2-0.9-2.4-1.1-3.6C209.9,206.5,209.9,205.9,209.9,205.9 M228.6,235.6c-0.4,0.2-1.8,0.8-2.2,1
			c-0.4,0.2-0.8,0.3-1.2,0.4c-0.6,0.2-1.3,0.3-2,0.3c-0.5,0-1-0.1-1.5-0.2c-0.4-0.1-0.8-0.3-1-0.7c-0.2-0.3-0.4-0.7-0.5-1.1
			l-0.3-0.7l0.1-0.2c0,0,2.5,0,2.9,0c0.3-0.1,0.7-0.3,0.9-0.5c0.4-0.3,0.8-0.5,1.2-0.7c0.3-0.1,0.6-0.2,0.8,0s0.3,0.4,0.6,0.6
			c0.3,0.2,0.7,0.3,1,0.3c0.4,0,1.2,0,1.2,0c0.1,0.4,0.3,0.7,0.4,1.1C229,235.3,229,235.4,228.6,235.6 M216.2,247c0,0,0.7-1.2,1-1.7
			c0.2-0.4,0.4-0.8,0.7-1.2c0.3-0.3,0.5-0.7,0.8-0.6s0.5,0,0.5,0s-0.1-1.1-0.1-1.7c0-0.3,0-0.7,0.1-1l2,0c0,0,0.1-0.4,0.3-0.6
			c0.1-0.3,0.3-0.5,0.6-0.5c0.4-0.1,0.9-0.1,1.3-0.1c0.3,0,0.5,0,0.8-0.2c0.5-0.3,0.9-0.6,1.3-0.9c0.3-0.3,0.7-0.6,1.1-0.8
			c0.3-0.2,0.6-0.2,0.9-0.1c0.5,0.1,1.5,0.7,1.5,0.7l-0.1,0.4c0,0-0.4,0.6-0.6,1c-0.4,0.8-0.7,1.7-1,2.5c-0.3,0.8-0.5,1.7-0.6,2.6
			c0,0.4-0.1,1.2-0.1,1.2s-1.5,0.5-2.4,0.8s-1.8,0.6-2.5,0.8s-1.6,0.6-2,0.7c-0.3,0.1-0.5,0.3-0.7,0.1s-0.3-0.8-0.5-0.9
			c-0.3-0.2-0.6-0.3-0.9-0.3c-0.3,0-0.7,0-1-0.1C216.5,247.2,216.3,247.1,216.2,247 M241.1,227c0,0,0.5-1,0.8-1.5
			c0.2-0.4,0.4-0.8,0.8-1.1c0.2-0.2,0.5-0.5,0.7-0.5s0.4-0.3,0.4-0.7s-0.1-1.6-0.1-1.6l1.9-0.1c0.2-0.4,0.4-0.8,0.7-1.1
			c0.4-0.1,0.8-0.2,1.2-0.1c0.4,0,0.5,0.1,0.9-0.1s1.8-1.4,2.1-1.6s0.7-0.3,0.9-0.2s1,0.5,1.1,0.5c0.1,0.1,0.3,0.1,0.4,0.2
			c0,0-0.4,0.8-0.7,1.5c-0.5,0.9-0.8,1.9-1.1,2.9c-0.1,0.7-0.4,1.7-0.4,2.2c0,0.2-0.1,0.4-0.3,0.6l-1.8,0.6l-3.8,1.2
			c-0.3,0.2-0.7,0.3-1,0.3c-0.2-0.1-0.2-0.5-0.5-0.7s-0.4-0.4-0.9-0.4c-0.5-0.1-1.3-0.1-1.3-0.1L241.1,227z M263.8,207.2
			c0-31.5-25.5-57-57-57c-31.5,0-57,25.5-57,57s25.5,57,57,57c0,0,0,0,0,0C238.3,264.2,263.8,238.7,263.8,207.2"/>
		<path id="Pfad_2536" class="st1" d="M287.7,207.2c0,44.7-36.2,80.9-80.9,80.9s-80.9-36.2-80.9-80.9c0-44.7,36.2-80.9,80.9-80.9
			C251.5,126.3,287.7,162.5,287.7,207.2 M290.2,207.2c-0.1-45.9-37.3-83.1-83.2-83.1c-45.9,0.1-83.1,37.3-83.1,83.2
			c0.1,45.9,37.3,83.1,83.2,83.1c33.4,0,63.5-20,76.5-50.8C288,229.4,290.2,218.3,290.2,207.2"/>
		<path id="Pfad_2537" class="st1" d="M291.6,207.2L291.6,207.2c0,46.9-38,84.8-84.8,84.8h0c-46.9,0-84.8-38-84.8-84.9
			c0-23.6,9.9-46.2,27.2-62.2l0,0c15.7-14.6,36.3-22.6,57.6-22.6h0C253.6,122.3,291.6,160.3,291.6,207.2
			C291.6,207.2,291.6,207.2,291.6,207.2 M293.2,207.2c0-47.7-38.7-86.4-86.4-86.4s-86.4,38.7-86.4,86.4c0,47.7,38.7,86.4,86.4,86.4
			C254.5,293.6,293.2,254.9,293.2,207.2C293.2,207.2,293.2,207.2,293.2,207.2"/>
		<path id="Pfad_2538" class="st1" d="M273.2,221.5l8.5-1.5l0.5-2.5l-11.7-2.3l-0.4,2.1l7.7,1.5l-8.3,1.5l-0.5,2.5l11.7,2.3l0.4-2.1
			L273.2,221.5z"/>
		<path id="Pfad_2539" class="st1" d="M266.4,230.6l11.3,3.9l2.2-6.4l-1.8-0.6l-1.5,4.3l-3.1-1.1l1.4-3.9l-1.8-0.6l-1.3,3.9
			l-2.7-0.9l1.4-4.2l-1.8-0.6L266.4,230.6z"/>
		<path id="Pfad_2540" class="st1" d="M262.3,239l10.6,5.4l1-2l-4.8-2.4l1.4-2.7l4.8,2.4l1-2l-10.6-5.4l-1,2l4.1,2.1l-1.4,2.7
			l-4.1-2.1L262.3,239z"/>
		<path id="Pfad_2541" class="st1" d="M268.1,247.7c0.3,0.5,0.3,1-0.1,1.5c-0.2,0.3-0.5,0.5-0.8,0.6c-1.1,0.2-2.9-1-3.9-1.7
			c-1-0.7-2.5-1.7-2.8-2.8c-0.1-0.5,0-0.7,0.3-1.2c0.2-0.4,0.6-0.6,1-0.6c0.7,0.1,1.3,0.4,1.8,0.8l1.3-1.8l-0.3-0.2
			c-0.8-0.7-1.9-1-2.9-0.9c-1,0.2-1.8,0.8-2.3,1.7c-1.5,2-0.9,3.8,0.9,5.4c0.6,0.5,1.2,1,1.8,1.4c1.1,0.9,2.4,1.5,3.7,1.9
			c0.7,0.2,1.4,0.1,2-0.2c0.7-0.3,1.2-0.8,1.6-1.5c0.6-0.8,0.9-1.8,0.7-2.8c-0.3-1.1-1.1-2.1-2.1-2.7l-0.3-0.2l-1.3,1.8
			C267.1,246.6,267.6,247.1,268.1,247.7"/>
		
			<rect id="Rechteck_29" x="251.6" y="253.8" transform="matrix(0.755 -0.6557 0.6557 0.755 -108.3812 229.3375)" class="st1" width="2.2" height="11.9"/>
		<path id="Pfad_2542" class="st1" d="M245.1,263.9l-2.7-3.8l-1.8,1.3l6.8,9.8l1.8-1.3l-2.2-3.2v-1.4l5.1,2.6l2.1-1.4l-7-3.4
			l-0.1-6.1l-2,1.4L245.1,263.9z"/>
		<path id="Pfad_2543" class="st1" d="M235.8,268.3l6.4,5.8l2.3-1.2l-5.4-10.6l-1.9,1l3.5,7l-6.3-5.6l-2.3,1.2l5.4,10.6l1.9-0.9
			L235.8,268.3z"/>
		<path id="Pfad_2544" class="st1" d="M224.5,268.5l3.8,11.3l6.4-2.2l-0.6-1.8l-4.3,1.5l-1.1-3.1l3.9-1.3L232,271l-3.9,1.3l-0.9-2.7
			l4.2-1.4l-0.6-1.8L224.5,268.5z"/>
		<path id="Pfad_2545" class="st1" d="M218.9,271.8l2,9.8l2.2-0.4l-2-9.8l2.6-0.5l-0.4-1.9l-7.5,1.5l0.4,1.9L218.9,271.8z"/>
		<path id="Pfad_2546" class="st1" d="M182.4,274.9l4.4,1.4l0.6-1.9L183,273L182.4,274.9z"/>
		<path id="Pfad_2547" class="st1" d="M176.3,263.5l-5,10.8l2,0.9l2.3-4.9l2.7,1.3l-2.2,4.9l2,0.9l5-10.8l-2-0.9l-1.9,4.2l-2.7-1.3
			l1.9-4.2L176.3,263.5z"/>
		<path id="Pfad_2548" class="st1" d="M167.8,269.6c-0.4,0.3-1,0.3-1.4,0c-0.3-0.2-0.5-0.4-0.6-0.8c-0.2-1.1,0.9-2.9,1.6-3.9
			c0.7-1,1.7-2.5,2.7-2.9c0.5-0.1,0.7,0,1.2,0.3c0.4,0.2,0.6,0.6,0.6,1c0,0.7-0.3,1.3-0.7,1.9l1.9,1.2l0.2-0.3
			c0.6-0.8,0.9-1.9,0.8-2.9c-0.3-1-0.9-1.8-1.8-2.3c-2-1.4-3.9-0.7-5.3,1.1c-0.5,0.6-1,1.2-1.4,1.9c-0.8,1.1-1.4,2.4-1.8,3.8
			c-0.1,0.7-0.1,1.4,0.2,2c0.4,0.7,0.9,1.2,1.5,1.6c0.8,0.6,1.9,0.8,2.8,0.6c1.1-0.4,2.1-1.1,2.6-2.2l0.2-0.4l-1.9-1.2
			C168.9,268.5,168.4,269.1,167.8,269.6"/>
		<path id="Pfad_2549" class="st1" d="M156.3,259.3c-0.7,0.7-1.1,1.7-1.1,2.7c0.1,1,0.6,1.9,1.5,2.5c0.7,0.7,1.7,1.1,2.7,1.2
			c1.1,0,2.1-0.5,2.8-1.4c0.5-0.5,0.8-1.2,0.9-1.9c0-0.8-0.2-1.5-0.6-2.2l-0.6-1.2c-0.2-0.4-0.4-0.8-0.5-1.2c0-0.8,0.5-1.5,1.3-1.7
			c0.8,0,1.5,0.5,1.7,1.3c0,0.6-0.3,0.9-0.7,1.5l1.7,1.4l0.3-0.3c0.6-0.7,1-1.6,0.9-2.5c-0.2-0.9-0.7-1.7-1.4-2.2
			c-1.3-1.4-3.4-1.4-4.8-0.2c-0.1,0.1-0.2,0.2-0.3,0.3c-0.5,0.5-0.8,1.2-0.9,1.9c0,0.8,0.2,1.6,0.6,2.3l0.7,1.2
			c0.3,0.4,0.4,0.8,0.4,1.2c0,0.5-0.2,0.9-0.5,1.2c-0.5,0.6-1.4,0.7-2,0.2c0,0-0.1-0.1-0.1-0.1c-0.4-0.3-0.6-0.7-0.7-1.2
			c0.1-0.7,0.4-1.3,0.9-1.8l-1.7-1.4L156.3,259.3z"/>
		
			<rect id="Rechteck_30" x="149.5" y="253.7" transform="matrix(0.7278 -0.6858 0.6858 0.7278 -132.4393 175.9914)" class="st1" width="11.9" height="2.2"/>
		<path id="Pfad_2550" class="st1" d="M150,244.2l-5.6,6.6l1.1,1.5l8-3.3l-6.8,4.9l1.2,1.7l9.6-7l-1.9-2.5l-7.6,3.2l5.3-6.2
			l-1.9-2.6l-9.6,7l1.2,1.7L150,244.2z"/>
		<path id="Pfad_2551" class="st1" d="M133,223.1l-0.8,0.2l0.3,1.7l6.3-1.2l-0.8-4l-1.7,0.3l0.4,1.9c-0.7,0.1-1.4,0.2-2.1,0.1
			c-0.3,0-0.6-0.1-0.9-0.3c-0.5-0.5-0.6-1.2-0.3-1.9c0.7-0.9,2.7-1.3,3.9-1.5c1.2-0.2,2.9-0.5,4-0.1c0.4,0.2,0.6,0.6,0.7,1
			c0.1,0.4,0,0.7-0.2,1.1c-0.4,0.5-1,0.7-1.6,0.8l0.4,2.1l0.4-0.1c2-0.5,3.2-2.4,2.7-4.4c-0.3-1.2-1.2-2.2-2.3-2.6
			c-0.7-0.2-1.4-0.3-2.2-0.2c-0.8,0-1.5,0.1-2.3,0.3c-1.3,0.2-2.6,0.6-3.8,1.2c-1.3,0.6-2,2.1-1.6,3.5
			C131.6,221.9,132.2,222.7,133,223.1"/>
		<rect id="Rechteck_31" x="273.5" y="203" class="st1" width="3.7" height="3.8"/>
		<rect id="Rechteck_32" x="134.7" y="203" class="st1" width="3.7" height="3.8"/>
		<path id="Pfad_2552" class="st1" d="M272.3,188.9l-4.5,1.1l0.5,2.1l4.5-1.1l7.8,1.3l-0.6-2.3l-5-0.7l4.1-2.9l-0.6-2.4L272.3,188.9
			z"/>
		<path id="Pfad_2553" class="st1" d="M275.6,176.4l-11.1,4.3l2.4,6.3l1.8-0.7l-1.6-4.2l3.1-1.2l1.5,3.8l1.8-0.7l-1.5-3.9l2.6-1
			l1.6,4.1l1.8-0.7L275.6,176.4z"/>
		<path id="Pfad_2554" class="st1" d="M268,171.7l4.1-2.2l-1.1-1.9l-10.4,5.7l1.1,2l3.4-1.9l1.4,0.1l-3.1,4.8l1.2,2.2l4.2-6.6
			l6.1,0.6l-1.2-2.2L268,171.7z"/>
		<path id="Pfad_2555" class="st1" d="M258.7,167.4c0.2-1.1,1.9-2.4,2.8-3.1s2.5-1.8,3.6-1.8c0.2,0,0.4,0.1,0.5,0.2
			c0.6,0.3,0.9,1,0.7,1.6c-0.3,0.6-0.7,1.1-1.3,1.5l1.3,1.8l0.3-0.2c0.9-0.6,1.5-1.5,1.8-2.5c0.1-1-0.2-2-0.9-2.7
			c-1.4-2-3.4-2-5.4-0.8c-0.7,0.4-1.3,0.8-1.9,1.3c-1.2,0.8-2.2,1.8-3,2.9c-0.4,0.6-0.5,1.3-0.5,2c0.1,0.7,0.4,1.4,0.9,2
			c0.6,0.8,1.5,1.4,2.5,1.5c1.2,0,2.3-0.3,3.2-1.1l0.3-0.2l-1.3-1.8l-0.3,0.2c-0.5,0.4-1,0.7-1.6,0.8c-0.5,0.1-1.1-0.1-1.4-0.5
			C258.8,168.1,258.7,167.8,258.7,167.4"/>
		<path id="Pfad_2556" class="st1" d="M249.4,144.6l-7.2,9.5l1.8,1.3l3.3-4.3l2.4,1.8l-3.3,4.3l1.8,1.3l7.2-9.5l-1.8-1.3l-2.8,3.7
			l-2.4-1.8l2.8-3.7L249.4,144.6z"/>
		<path id="Pfad_2557" class="st1" d="M236.1,146.5c-0.5,0.8-0.7,1.9-0.5,2.8c0.3,1,1,1.8,1.9,2.2c0.8,0.5,1.8,0.8,2.8,0.7
			c1.1-0.2,2-0.9,2.4-1.9c0.4-0.6,0.5-1.3,0.5-2c-0.1-0.8-0.5-1.5-1-2l-0.9-1c-0.3-0.3-0.5-0.7-0.7-1.1c-0.2-0.8,0.2-1.6,0.9-2
			c0.8-0.2,1.6,0.2,1.9,0.9c0.1,0.6-0.1,1-0.4,1.6l1.9,1.1l0.2-0.4c0.5-0.8,0.7-1.7,0.4-2.6c-0.4-0.8-1-1.5-1.8-1.9
			c-1.5-1.1-3.7-0.7-4.7,0.8c-0.1,0.1-0.2,0.2-0.2,0.4c-0.4,0.6-0.6,1.3-0.5,2.1c0.1,0.8,0.5,1.5,1.1,2.1l0.9,1
			c0.3,0.3,0.5,0.7,0.7,1.1c0.1,0.5,0,0.9-0.3,1.3c-0.4,0.7-1.3,1-2,0.6c0,0-0.1,0-0.1-0.1c-0.4-0.2-0.8-0.6-0.9-1
			c-0.1-0.7,0.1-1.4,0.6-1.9l-1.9-1.1L236.1,146.5z"/>
		<path id="Pfad_2558" class="st1" d="M236.1,137.4l-4.8,10.9l2,0.9l4.8-10.9L236.1,137.4z"/>
		<path id="Pfad_2559" class="st1" d="M227.7,134.3l-3.8,11.3l6.4,2.1l0.6-1.8l-4.3-1.5l1.1-3.1l3.9,1.3l0.6-1.8l-3.9-1.3l0.9-2.7
			l4.2,1.4l0.6-1.8L227.7,134.3z"/>
		<path id="Pfad_2560" class="st1" d="M218.8,140.5l4.5,1l0.4-2l-4.5-1L218.8,140.5z"/>
		<path id="Pfad_2561" class="st1" d="M211.6,131.5l-1.3,11.8l6.7,0.7l0.2-1.9l-4.5-0.5l0.4-3.3l4.1,0.4l0.2-1.9l-4.1-0.4l0.3-2.8
			l4.4,0.5l0.2-1.9L211.6,131.5z"/>
		<path id="Pfad_2562" class="st1" d="M202.2,131.4l0.2,11.9l6.7-0.1l0-1.9l-4.5,0.1l-0.1-3.3l4.1-0.1l0-1.9l-4.1,0.1l0-2.8l4.4-0.1
			l0-1.9L202.2,131.4z"/>
		<path id="Pfad_2563" class="st1" d="M193.1,141.1c0.1,1,0.6,1.9,1.3,2.6c0.8,0.6,1.9,0.8,2.9,0.6c1-0.1,2-0.5,2.7-1.2
			c0.7-0.8,1-1.9,0.7-3c-0.1-0.7-0.4-1.4-0.8-1.9c-0.6-0.5-1.3-0.9-2.1-1l-1.3-0.3c-0.4-0.1-0.8-0.2-1.2-0.4
			c-0.6-0.5-0.8-1.4-0.5-2.1c0.5-0.6,1.4-0.8,2.1-0.4c0.5,0.4,0.5,0.9,0.6,1.5l2.2-0.3l-0.1-0.4c-0.1-0.9-0.5-1.8-1.2-2.3
			c-0.8-0.4-1.7-0.6-2.6-0.4c-1.9,0.1-3.3,1.7-3.3,3.5c0,0.1,0,0.3,0,0.4c0.1,0.7,0.4,1.4,0.9,1.9c0.6,0.5,1.3,0.9,2.1,1l1.3,0.2
			c0.4,0,0.8,0.2,1.2,0.5c0.3,0.3,0.6,0.7,0.6,1.2c0.1,0.8-0.4,1.5-1.2,1.7c-0.1,0-0.1,0-0.2,0c-0.5,0.1-0.9,0-1.3-0.3
			c-0.5-0.5-0.7-1.2-0.7-1.9l-2.2,0.3L193.1,141.1z"/>
		<path id="Pfad_2564" class="st1" d="M173.4,139l4.8,10.9l6.2-2.7l-0.8-1.8l-4.1,1.8l-1.3-3l3.8-1.7l-0.8-1.8l-3.8,1.7l-1.1-2.6
			l4-1.8l-0.8-1.8L173.4,139z"/>
		<path id="Pfad_2565" class="st1" d="M168.7,151.5c0.5,0.9,1.3,1.5,2.2,1.8c1,0.2,2,0,2.9-0.6c0.9-0.5,1.6-1.2,2-2.1
			c0.3-1,0.2-2.2-0.5-3.1c-0.3-0.6-0.9-1.1-1.5-1.4c-0.7-0.3-1.5-0.3-2.3-0.1l-1.3,0.3c-0.4,0.1-0.9,0.1-1.3,0.1
			c-0.8-0.2-1.3-1-1.3-1.8c0.2-0.8,0.9-1.3,1.7-1.2c0.6,0.2,0.8,0.6,1.1,1.2l1.9-1.2l-0.2-0.4c-0.4-0.8-1.2-1.4-2.1-1.6
			c-0.9-0.1-1.8,0.1-2.6,0.7c-1.7,0.8-2.4,2.8-1.6,4.5c0.1,0.1,0.1,0.3,0.2,0.4c0.3,0.6,0.9,1.1,1.6,1.4c0.8,0.3,1.6,0.3,2.3,0.1
			l1.3-0.3c0.4-0.1,0.9-0.1,1.3,0c0.4,0.1,0.8,0.5,1,0.9c0.4,0.7,0.2,1.6-0.4,2c0,0-0.1,0.1-0.1,0.1c-0.4,0.3-0.9,0.4-1.3,0.3
			c-0.7-0.3-1-0.8-1.4-1.4l-1.9,1.1L168.7,151.5z"/>
		<path id="Pfad_2566" class="st1" d="M161.6,157.1c0.6,0.8,1.5,1.4,2.4,1.5c1,0.1,2-0.3,2.8-1c0.8-0.6,1.4-1.4,1.7-2.4
			c0.2-1.1-0.1-2.2-0.9-3c-0.4-0.6-1-1-1.7-1.2c-0.8-0.2-1.5-0.1-2.3,0.2l-1.2,0.4c-0.4,0.2-0.8,0.2-1.3,0.2
			c-0.8-0.1-1.4-0.8-1.5-1.6c0.1-0.8,0.8-1.4,1.6-1.4c0.6,0.1,0.9,0.5,1.3,1l1.7-1.4l-0.3-0.3c-0.5-0.8-1.3-1.2-2.3-1.3
			c-0.9,0-1.8,0.4-2.5,1c-1.6,1-2,3.1-1,4.7c0.1,0.1,0.2,0.2,0.3,0.4c0.4,0.6,1,1,1.7,1.2c0.8,0.2,1.6,0.1,2.3-0.2l1.3-0.4
			c0.4-0.2,0.8-0.3,1.3-0.2c0.4,0.1,0.8,0.4,1.1,0.7c0.5,0.6,0.5,1.5-0.2,2.1c0,0-0.1,0.1-0.1,0.1c-0.3,0.3-0.8,0.5-1.3,0.4
			c-0.8-0.2-1.1-0.6-1.6-1.2l-1.7,1.4L161.6,157.1z"/>
		<path id="Pfad_2567" class="st1" d="M150,157l8.6,8.2l4.6-4.9l-1.4-1.3l-3.1,3.3l-2.4-2.3l2.9-3l-1.4-1.3l-2.9,3l-2.1-2l3-3.2
			l-1.4-1.3L150,157z"/>
		
			<rect id="Rechteck_33" x="151.2" y="157.7" transform="matrix(0.6213 -0.7836 0.7836 0.6213 -70.5243 181.2903)" class="st1" width="2.2" height="11.9"/>
		<path id="Pfad_2568" class="st1" d="M146,181.4c0.4,0.4,0.5,0.9,0.3,1.4c-0.1,0.3-0.3,0.6-0.6,0.8c-1.1,0.5-3.1-0.3-4.2-0.7
			c-1.1-0.4-2.8-1.1-3.4-2.1c-0.1-0.2-0.1-0.4-0.1-0.5c0-0.7,0.4-1.3,1-1.5c0.7-0.1,1.4,0,2,0.4l0.8-2.1l-0.4-0.1
			c-0.9-0.5-2-0.5-3-0.2c-0.9,0.4-1.6,1.2-1.9,2.2c-1,2.3,0.1,3.9,2.2,5c0.7,0.4,1.4,0.7,2.1,1c1.3,0.6,2.7,0.9,4.1,0.9
			c0.7,0,1.4-0.2,1.9-0.6c0.6-0.5,1-1.1,1.2-1.8c0.4-0.9,0.4-2,0-2.9c-0.6-1-1.5-1.8-2.7-2.1l-0.4-0.1l-0.8,2.1
			C144.7,180.6,145.4,181,146,181.4"/>
		<path id="Pfad_2569" class="st1" d="M140.7,194.7c1,0.3,2,0.2,2.9-0.3c0.8-0.6,1.4-1.5,1.6-2.5c0.3-1,0.3-2-0.1-2.9
			c-0.5-1-1.4-1.6-2.5-1.8c-0.7-0.2-1.4-0.2-2.1,0.1c-0.7,0.3-1.3,0.9-1.7,1.6l-0.7,1.1c-0.2,0.4-0.5,0.7-0.9,1
			c-0.7,0.4-1.6,0.3-2.2-0.3c-0.4-0.7-0.3-1.6,0.4-2.1c0.5-0.2,1.1-0.2,1.6,0l0.5-2.2l-0.4-0.1c-0.9-0.3-1.8-0.2-2.6,0.3
			c-0.7,0.6-1.2,1.4-1.3,2.3c-0.6,1.8,0.3,3.7,2.1,4.4c0.1,0,0.3,0.1,0.4,0.1c0.7,0.2,1.4,0.2,2.1-0.1c0.7-0.4,1.3-0.9,1.7-1.6
			l0.7-1.1c0.2-0.4,0.5-0.7,0.9-0.9c0.4-0.2,0.9-0.2,1.3-0.1c0.8,0.2,1.3,0.9,1.1,1.7c0,0.1,0,0.1,0,0.2c-0.1,0.5-0.3,0.9-0.7,1.1
			c-0.6,0.2-1.4,0.2-2,0l-0.5,2.2L140.7,194.7z"/>
	</g>
</g>
</svg>
